<?xml version="1.0" encoding="UTF-8"?>
<mxfile host="app.diagrams.net" modified="13-replicated-database-for-scalability" agent="PlantUML Converter" version="1.0" etag="plantuml-diagram" type="device">
  <diagram id="plantuml-13-replicated-database-for-scalability" name="13-replicated-database-for-scalability">
    <mxGraphModel dx="1422" dy="794" grid="1" gridSize="10" guides="1" tooltips="1" connect="1" arrows="1" fold="1" page="1" pageScale="1" pageWidth="827" pageHeight="1169" math="0" shadow="0">
      <root>
        <mxCell id="0" />
        <mxCell id="1" parent="0" />
        <mxCell id="plantuml-container" value="" style="shape=image;html=1;verticalAlign=top;verticalLabelPosition=bottom;labelBackgroundColor=#ffffff;imageAspect=0;aspect=fixed;image=data:image/svg+xml,PHN2ZyB4bWxucz0iaHR0cDovL3d3dy53My5vcmcvMjAwMC9zdmciIHdpZHRoPSI0MDAiIGhlaWdodD0iMzAwIiB2aWV3Qm94PSIwIDAgNDAwIDMwMCI+CiAgPHJlY3Qgd2lkdGg9IjQwMCIgaGVpZ2h0PSIzMDAiIGZpbGw9IiNmOGY5ZmEiIHN0cm9rZT0iI2RlZTJlNiIvPgogIDx0ZXh0IHg9IjIwMCIgeT0iMTUwIiB0ZXh0LWFuY2hvcj0ibWlkZGxlIiBmb250LWZhbWlseT0iQXJpYWwiIGZvbnQtc2l6ZT0iMTQiIGZpbGw9IiM2Yzc1N2QiPgogICAgRGlhZ3JhbWEgUGxhbnRVTUw6IDEzLXJlcGxpY2F0ZWQtZGF0YWJhc2UtZm9yLXNjYWxhYmlsaXR5CiAgPC90ZXh0PgogIDx0ZXh0IHg9IjIwMCIgeT0iMTcwIiB0ZXh0LWFuY2hvcj0ibWlkZGxlIiBmb250LWZhbWlseT0iQXJpYWwiIGZvbnQtc2l6ZT0iMTIiIGZpbGw9IiM2Yzc1N2QiPgogICAgKFNWRyBuw6NvIGRpc3BvbsOtdmVsIC0gdXNlIG8gY8OzZGlnbyBQbGFudFVNTCBpbmNvcnBvcmFkbykKICA8L3RleHQ+Cjwvc3ZnPg==;plantuml=QHN0YXJ0dW1sCmxlZnQgdG8gcmlnaHQgZGlyZWN0aW9uCiFpbmNsdWRlIGh0dHBzOi8vcmF3LmdpdGh1YnVzZXJjb250ZW50LmNvbS9wbGFudHVtbC1zdGRsaWIvQzQtUGxhbnRVTUwvbWFzdGVyL0M0X0NvbnRhaW5lci5wdW1sCnNraW5wYXJhbSBub2Rlc2VwIDEwCnNraW5wYXJhbSByYW5rc2VwIDEwCgpUSVRMRSBPcmRlciBTZXJ2aWNlIHdpdGggUHJpbWFyeeKAk1JlcGxpY2EgRGF0YWJhc2UKClBlcnNvbih1c2VyLCAiVXNlciIsICJQbGFjZXMgb3JkZXJzIHZpYSB3ZWIgaW50ZXJmYWNlIikKClN5c3RlbV9Cb3VuZGFyeShvcmRlcl9zeXN0ZW0sICJPcmRlciBQcm9jZXNzaW5nIFN5c3RlbSIpIHsKICBDb250YWluZXIob3JkZXJfc2VydmljZSwgIk9yZGVyIFNlcnZpY2UiLCAiU3ByaW5nIEJvb3QiLCAiSGFuZGxlcyBvcmRlciBwcm9jZXNzaW5nIikKCiAgQ29udGFpbmVyRGIob3JkZXJfZGJfcHJpbWFyeSwgIk9yZGVyIERhdGFiYXNlIChQcmltYXJ5KSIsICJQb3N0Z3JlU1FMIiwgIk1hc3RlciBub2RlIGZvciByZWFkcyAmIHdyaXRlcyIpCiAgQ29udGFpbmVyRGIob3JkZXJfZGJfcmVwbGljYSwgIk9yZGVyIERhdGFiYXNlIChSZXBsaWNhKSIsICJQb3N0Z3JlU1FMIiwgIlJlYWQtb25seSByZXBsaWNhIikKfQoKUmVsKHVzZXIsIG9yZGVyX3NlcnZpY2UsICJQbGFjZXMgb3JkZXJzIiwgIkhUVFAvSlNPTiIpClJlbChvcmRlcl9zZXJ2aWNlLCBvcmRlcl9kYl9wcmltYXJ5LCAiUmVhZHMvV3JpdGVzIiwgIkpEQkMvU1FMIikKUmVsKG9yZGVyX3NlcnZpY2UsIG9yZGVyX2RiX3JlcGxpY2EsICJSZWFkcyIsICJKREJDL1NRTCIpClJlbChvcmRlcl9kYl9wcmltYXJ5LCBvcmRlcl9kYl9yZXBsaWNhLCAiU3RyZWFtcyByZXBsaWNhdGlvbiB0byIsICJQb3N0Z3JlU1FMIHN0cmVhbWluZyIpCkBlbmR1bWwK;" vertex="1" parent="1">
          <mxGeometry x="40" y="40" width="400" height="300" as="geometry" />
        </mxCell>
      </root>
    </mxGraphModel>
  </diagram>
</mxfile>